<?xml version="1.0" encoding="UTF-8" standalone="no"?>
<!-- Created with Inkscape (http://www.inkscape.org/) -->

<svg
   version="1.1"
   id="svg2"
   width="486.96783"
   height="57.73645"
   viewBox="0 0 486.96783 57.73645"
   sodipodi:docname="logo_nethvoice.ai"
   xmlns:inkscape="http://www.inkscape.org/namespaces/inkscape"
   xmlns:sodipodi="http://sodipodi.sourceforge.net/DTD/sodipodi-0.dtd"
   xmlns="http://www.w3.org/2000/svg"
   xmlns:svg="http://www.w3.org/2000/svg">
  <defs
     id="defs6">
    <clipPath
       clipPathUnits="userSpaceOnUse"
       id="clipPath18">
      <path
         d="M 0,595.276 H 841.89 V 0 H 0 Z"
         id="path16" />
    </clipPath>
  </defs>
  <sodipodi:namedview
     id="namedview4"
     pagecolor="#ffffff"
     bordercolor="#666666"
     borderopacity="1.0"
     inkscape:showpageshadow="2"
     inkscape:pageopacity="0.0"
     inkscape:pagecheckerboard="0"
     inkscape:deskcolor="#d1d1d1"
     showgrid="false" />
  <g
     id="g10"
     inkscape:groupmode="layer"
     inkscape:label="Page 1"
     transform="matrix(1.3333333,0,0,-1.3333333,-317.73694,425.25733)">
    <g
       id="g12">
      <g
         id="g14"
         clip-path="url(#clipPath18)">
        <g
           id="g20"
           transform="translate(381.0967,303.4538)">
          <path
             d="M 0,0 C 2.852,0 5.011,-0.944 6.623,-2.886 7.978,-4.512 8.714,-6.614 8.828,-9.132 H -9.345 c 0.432,2.488 1.357,4.568 2.765,6.199 C -4.862,-0.959 -2.713,0 0,0 m 14.054,-12.559 c 0,5.258 -1.24,9.423 -3.681,12.38 C 7.884,2.834 4.396,4.364 0,4.364 c -4.445,0 -8.066,-1.586 -10.77,-4.71 -2.549,-2.95 -3.845,-6.7 -3.845,-11.15 0,-4.605 1.175,-8.334 3.49,-11.098 2.556,-3.021 6.304,-4.554 11.125,-4.554 3.797,0 6.908,0.977 9.258,2.909 2.001,1.656 3.517,4.055 4.504,7.135 l 0.283,0.882 H 8.606 L 8.472,-16.75 C 7.993,-18.667 7.016,-20.119 5.482,-21.186 3.961,-22.245 2.11,-22.778 0,-22.778 c -3.057,0 -5.37,0.94 -7.059,2.888 -1.469,1.689 -2.268,3.923 -2.372,6.646 h 23.485 z"
             style="fill:#45a142;fill-opacity:1;fill-rule:nonzero;stroke:none"
             id="path22" />
        </g>
        <g
           id="g24"
           transform="translate(409.7202,302.7068)">
          <path
             d="m 0,0 h 6.694 v 4.929 h -7.068 v 3.277 c 0,5.197 -5.093,5.197 -5.093,5.197 V 4.929 h -4.888 V 0 h 4.888 v -14.555 c 0,-3.59 1.175,-6.5 3.484,-8.653 2.286,-2.143 5.113,-3.193 8.665,-3.193 v 4.832 c -2.448,0 -4.256,0.797 -5.543,2.444 -1.003,1.269 -1.513,2.864 -1.513,4.745 V 0 Z"
             style="fill:#45a142;fill-opacity:1;fill-rule:nonzero;stroke:none"
             id="path26" />
        </g>
        <g
           id="g28"
           transform="translate(349.0127,302.9831)">
          <path
             d="m 0,0 c 2.447,0 4.264,-0.799 5.558,-2.445 0.994,-1.266 1.501,-2.86 1.501,-4.74 V -21.48 c 0,-5.197 5.091,-5.197 5.091,-5.197 v 19.666 c 0,3.54 -1.145,6.43 -3.395,8.603 C 6.439,3.773 3.582,4.834 0,4.834 c -3.542,0 -6.37,-1.045 -8.658,-3.199 -2.316,-2.147 -3.486,-5.059 -3.486,-8.646 v -19.666 h 5.087 v 19.492 c 0,1.882 0.51,3.474 1.514,4.742 C -4.255,-0.799 -2.443,0 0,0"
             style="fill:#45a142;fill-opacity:1;fill-rule:nonzero;stroke:none"
             id="path30" />
        </g>
        <g
           id="g32"
           transform="translate(443.9775,304.5749)">
          <path
             d="m 0,0 c -2.315,2.182 -5.167,3.243 -8.748,3.243 -2.766,0 -5.085,-0.644 -7.058,-1.945 V 12.82 h -5.087 v -21.423 -8.74 h 5.087 v 8.566 c 0,1.882 0.508,3.474 1.51,4.742 1.294,1.644 3.103,2.443 5.548,2.443 2.44,0 4.262,-0.799 5.551,-2.445 1,-1.266 1.504,-2.86 1.504,-4.74 v -14.3 c 0,-5.194 5.097,-5.194 5.097,-5.194 V -8.603 C 3.404,-5.063 2.255,-2.173 0,0"
             style="fill:#45a142;fill-opacity:1;fill-rule:nonzero;stroke:none"
             id="path34" />
        </g>
        <g
           id="g36"
           transform="translate(483.3516,306.9983)">
          <path
             d="M 0,0 -11.587,-30.697 H -13.08 L -25.682,0 h 1.374 l 11.885,-29.503 h 0.12 L -1.314,0 Z"
             style="fill:#45a142;fill-opacity:1;fill-rule:nonzero;stroke:none"
             id="path38" />
        </g>
        <g
           id="g40"
           transform="translate(492.2793,286.0354)">
          <path
             d="m 0,0 c 0.537,-1.791 1.344,-3.374 2.419,-4.747 1.075,-1.374 2.397,-2.47 3.972,-3.285 1.572,-0.817 3.393,-1.225 5.464,-1.225 2.031,0 3.832,0.408 5.405,1.225 1.572,0.815 2.896,1.911 3.971,3.285 1.076,1.373 1.882,2.956 2.419,4.747 0.537,1.792 0.807,3.663 0.807,5.614 0,1.911 -0.27,3.763 -0.807,5.555 -0.537,1.791 -1.343,3.374 -2.419,4.748 -1.075,1.373 -2.399,2.479 -3.971,3.314 -1.573,0.836 -3.374,1.254 -5.405,1.254 -2.071,0 -3.892,-0.418 -5.464,-1.254 C 4.816,18.396 3.494,17.29 2.419,15.917 1.344,14.543 0.537,12.96 0,11.169 -0.537,9.377 -0.807,7.525 -0.807,5.614 -0.807,3.663 -0.537,1.792 0,0 m -1.105,11.676 c 0.597,1.931 1.483,3.633 2.658,5.106 1.174,1.473 2.617,2.658 4.33,3.554 1.711,0.896 3.703,1.344 5.972,1.344 2.229,0 4.2,-0.448 5.913,-1.344 1.711,-0.896 3.155,-2.081 4.33,-3.554 1.173,-1.473 2.06,-3.175 2.658,-5.106 0.597,-1.932 0.894,-3.951 0.894,-6.062 0,-2.11 -0.297,-4.131 -0.894,-6.061 -0.598,-1.932 -1.485,-3.634 -2.658,-5.107 -1.175,-1.473 -2.619,-2.648 -4.33,-3.523 -1.713,-0.876 -3.704,-1.315 -5.973,-1.315 -2.231,0 -4.201,0.439 -5.912,1.315 -1.713,0.875 -3.156,2.05 -4.33,3.523 -1.175,1.473 -2.061,3.175 -2.658,5.107 C -1.702,1.483 -2,3.504 -2,5.614 c 0,2.111 0.298,4.13 0.895,6.062"
             style="fill:#45a142;fill-opacity:1;fill-rule:nonzero;stroke:none"
             id="path42" />
        </g>
        <path
           d="m 528.859,306.998 h 1.194 v -30.697 h -1.194 z m 0,11.945 h 1.194 v -6.032 h -1.194 z"
           style="fill:#45a142;fill-opacity:1;fill-rule:nonzero;stroke:none"
           id="path44" />
        <g
           id="g46"
           transform="translate(566.0664,282.1242)">
          <path
             d="m 0,0 c -0.678,-1.374 -1.562,-2.538 -2.658,-3.494 -1.096,-0.955 -2.369,-1.693 -3.822,-2.21 -1.454,-0.517 -3.056,-0.776 -4.807,-0.776 -2.192,0 -4.132,0.409 -5.824,1.224 -1.692,0.816 -3.116,1.921 -4.27,3.315 -1.155,1.393 -2.031,3.016 -2.628,4.867 -0.596,1.851 -0.895,3.832 -0.895,5.942 0,2.23 0.288,4.35 0.865,6.361 0.577,2.01 1.453,3.782 2.629,5.315 1.174,1.532 2.666,2.757 4.478,3.673 1.812,0.916 3.932,1.374 6.362,1.374 1.432,0 2.806,-0.219 4.12,-0.657 1.313,-0.438 2.487,-1.075 3.524,-1.912 1.034,-0.835 1.901,-1.88 2.598,-3.134 0.695,-1.255 1.143,-2.699 1.344,-4.33 H -0.18 c -0.238,1.512 -0.677,2.816 -1.313,3.912 -0.638,1.093 -1.413,2.009 -2.329,2.747 -0.916,0.736 -1.951,1.283 -3.106,1.642 -1.155,0.358 -2.369,0.537 -3.642,0.537 -2.43,0 -4.491,-0.468 -6.182,-1.403 -1.693,-0.936 -3.047,-2.15 -4.061,-3.643 -1.015,-1.494 -1.753,-3.165 -2.21,-5.017 -0.458,-1.852 -0.687,-3.673 -0.687,-5.465 0,-1.871 0.269,-3.663 0.806,-5.375 0.538,-1.712 1.324,-3.224 2.359,-4.539 1.035,-1.313 2.33,-2.358 3.883,-3.135 1.553,-0.776 3.344,-1.165 5.375,-1.165 1.512,0 2.926,0.229 4.24,0.688 1.314,0.457 2.479,1.124 3.493,2 1.016,0.876 1.841,1.921 2.479,3.136 0.637,1.213 1.015,2.597 1.135,4.15 H 1.254 C 1.095,2.916 0.676,1.373 0,0"
             style="fill:#45a142;fill-opacity:1;fill-rule:nonzero;stroke:none"
             id="path48" />
        </g>
        <g
           id="g50"
           transform="translate(601.541,297.9504)">
          <path
             d="m 0,0 c -0.518,1.692 -1.283,3.175 -2.299,4.449 -1.015,1.275 -2.279,2.28 -3.793,3.016 -1.513,0.737 -3.264,1.105 -5.255,1.105 -1.673,0 -3.235,-0.319 -4.688,-0.955 -1.453,-0.637 -2.728,-1.563 -3.822,-2.777 -1.096,-1.215 -1.981,-2.679 -2.659,-4.39 -0.676,-1.713 -1.074,-3.643 -1.193,-5.793 H 0.777 C 0.777,-3.474 0.518,-1.692 0,0 m -22.963,-12.303 c 0.457,-1.772 1.164,-3.314 2.12,-4.629 0.956,-1.313 2.19,-2.349 3.702,-3.105 1.514,-0.757 3.366,-1.135 5.555,-1.135 3.225,0 5.902,0.846 8.033,2.538 2.129,1.693 3.453,4.231 3.971,7.615 h 1.195 c -0.439,-3.584 -1.851,-6.36 -4.24,-8.331 -2.389,-1.971 -5.336,-2.957 -8.84,-2.957 -2.388,-0.039 -4.429,0.339 -6.121,1.135 -1.693,0.796 -3.076,1.921 -4.15,3.375 -1.075,1.452 -1.872,3.165 -2.389,5.136 -0.519,1.971 -0.777,4.091 -0.777,6.36 0,2.548 0.379,4.818 1.134,6.809 0.756,1.99 1.752,3.673 2.987,5.047 1.234,1.373 2.667,2.418 4.301,3.135 1.63,0.716 3.303,1.075 5.015,1.075 2.39,0 4.449,-0.458 6.182,-1.374 1.732,-0.916 3.144,-2.13 4.24,-3.643 C 0.05,3.234 0.846,1.503 1.344,-0.448 1.842,-2.399 2.051,-4.43 1.971,-6.54 h -25.68 c 0.039,-2.07 0.288,-3.991 0.746,-5.763"
             style="fill:#45a142;fill-opacity:1;fill-rule:nonzero;stroke:none"
             id="path52" />
        </g>
        <g
           id="g54"
           transform="translate(296.5337,281.9504)">
          <path
             d="M 0,0 C -7.527,0 -14.608,2.937 -19.938,8.27 -30.057,18.383 -46.522,18.384 -56.643,8.269 l -1.588,1.588 c 10.996,10.99 28.886,10.99 39.88,0 C -13.444,4.948 -6.928,2.246 0,2.246 c 6.927,0 13.442,2.703 18.347,7.61 L 19.935,8.27 C 14.607,2.938 7.527,0 0,0"
             style="fill:#45a142;fill-opacity:1;fill-rule:nonzero;stroke:none"
             id="path56" />
        </g>
      </g>
    </g>
  </g>
</svg>
