<svg width="384" height="50" viewBox="0 0 384 50" fill="none" xmlns="http://www.w3.org/2000/svg">
<g clip-path="url(#clip0_1014_623)">
<path d="M140.285 31.6435C140.285 25.042 138.728 19.819 135.662 16.108C132.534 12.3254 128.154 10.408 122.628 10.408C117.103 10.408 112.494 12.397 109.098 16.3179C105.893 20.0193 104.27 24.7272 104.27 30.308C104.27 36.0843 105.745 40.7636 108.654 44.2313C111.863 48.0234 116.573 49.9552 122.628 49.9552C127.404 49.9552 131.311 48.7293 134.263 46.3062C136.77 44.2313 138.676 41.2167 139.922 37.3531L140.276 36.2465H133.451L133.284 36.9047C132.78 39.1691 131.437 41.1594 129.525 42.476C127.493 43.8401 125.086 44.5386 122.638 44.4745C118.817 44.4745 115.894 43.2916 113.769 40.8494C111.925 38.7316 110.903 35.9269 110.789 32.5069H140.285V31.6435ZM122.614 15.879C126.196 15.879 128.914 17.0667 130.934 19.5042C132.634 21.5457 133.561 24.1834 133.709 27.3411H110.899C111.32 24.4796 112.523 21.7895 114.376 19.5661C115.383 18.3662 116.65 17.4107 118.081 16.7719C119.513 16.1331 121.071 15.8278 122.638 15.879H122.614Z" fill="#059669"/>
<path d="M158.602 16.8232H167.031V10.6223H158.134V6.51069C158.134 -0.01453 151.734 -0.0145264 151.734 -0.0145264V10.6223H145.592V16.8232H151.748V35.0824C151.748 39.5899 153.224 43.2389 156.128 45.9386C159.031 48.6384 162.551 49.9453 167.007 49.9453V43.8876C163.936 43.8876 161.663 42.8811 160.044 40.8158C158.743 39.1088 158.068 37.0073 158.134 34.8629V16.8232H158.602Z" fill="#059669"/>
<path d="M82.3286 16.4753C85.4044 16.4753 87.6873 17.4769 89.3111 19.5423C90.6112 21.248 91.2856 23.3477 91.2215 25.4904V43.4252C91.2215 49.9456 97.6214 49.9456 97.6214 49.9456V25.2757C97.6214 20.8302 96.1886 17.2051 93.3517 14.4767C90.4431 11.7388 86.8515 10.408 82.3669 10.408C77.8822 10.408 74.3623 11.7197 71.4919 14.4194C68.6215 17.1192 67.1123 20.7682 67.1123 25.2757V49.9456H73.5026V25.5047C73.4354 23.3601 74.1101 21.2579 75.413 19.5518C76.9843 17.4769 79.2577 16.4753 82.3286 16.4753Z" fill="#059669"/>
<path d="M201.638 14.4766C198.734 11.7387 195.148 10.4079 190.653 10.4079C187.181 10.4079 184.268 11.2188 181.789 12.8453V0H175.394V49.9456H181.784V25.5046C181.717 23.36 182.392 21.2578 183.695 19.5518C185.314 17.4912 187.587 16.4895 190.658 16.4895C193.729 16.4895 196.017 17.4912 197.636 19.5566C198.924 21.2663 199.585 23.3662 199.508 25.5046V43.4967C199.508 50.0171 205.908 50.0171 205.908 50.0171V25.2757C205.917 20.8301 204.475 17.205 201.638 14.4766Z" fill="#059669"/>
<path d="M226.578 49.1776L212.456 11.1949H219.443L230.108 42.8527H230.256L240.629 11.1949H247.172L233.274 49.1728L226.578 49.1776Z" fill="#059669"/>
<path d="M252.044 22.3993C252.772 20.0738 253.974 17.9237 255.573 16.0839C257.177 14.2695 259.159 12.8285 261.381 11.8626C266.49 9.80199 272.2 9.80199 277.309 11.8626C279.519 12.8341 281.491 14.2746 283.088 16.0839C284.687 17.9246 285.89 20.0743 286.622 22.3993C287.422 24.9309 287.818 27.5722 287.797 30.2267C287.82 32.8672 287.423 35.4947 286.622 38.0111C285.885 40.3236 284.682 42.4613 283.088 44.2931C281.499 46.0971 279.528 47.526 277.319 48.4763C272.2 50.4858 266.509 50.4858 261.391 48.4763C259.166 47.5325 257.182 46.1032 255.583 44.2931C253.985 42.4631 252.781 40.3249 252.044 38.0111C251.239 35.4955 250.841 32.8676 250.864 30.2267C250.842 27.5718 251.241 24.9301 252.044 22.3993ZM258.406 36.356C258.938 38.0065 259.801 39.5319 260.942 40.8397C261.99 42.0193 263.282 42.9582 264.729 43.5919C266.178 44.2257 267.744 44.5528 269.326 44.5528C270.908 44.5528 272.473 44.2257 273.923 43.5919C275.369 42.9582 276.661 42.0193 277.71 40.8397C278.851 39.5313 279.715 38.0062 280.251 36.356C281.468 32.3506 281.458 28.0732 280.222 24.0735C279.681 22.4154 278.818 20.8803 277.682 19.5564C276.64 18.3585 275.347 17.4042 273.894 16.7613C272.443 16.132 270.879 15.8073 269.297 15.8073C267.716 15.8073 266.151 16.132 264.7 16.7613C263.248 17.4042 261.955 18.3585 260.913 19.5564C259.776 20.8794 258.914 22.4149 258.377 24.0735C257.148 28.0692 257.148 32.3412 258.377 36.3369L258.406 36.356Z" fill="#059669"/>
<path d="M334.191 17.8106C332.622 16.4909 330.514 15.8295 327.868 15.8263C325.904 15.7582 323.956 16.1881 322.204 17.076C320.735 17.8604 319.485 18.9962 318.564 20.3816C317.624 21.8252 316.961 23.4316 316.611 25.1181C316.216 26.9407 316.019 28.8006 316.023 30.6655C316.02 32.3986 316.231 34.1255 316.649 35.8074C317.029 37.393 317.689 38.8983 318.598 40.253C319.484 41.5538 320.67 42.6236 322.055 43.3725C323.619 44.1925 325.367 44.5982 327.132 44.5506C330.218 44.5506 332.633 43.7414 334.378 42.1228C336.122 40.5042 337.187 38.2273 337.573 35.2923H343.973C343.285 39.9954 341.534 43.6189 338.719 46.1629C335.904 48.7068 332.068 49.9788 327.209 49.9788C324.58 50.0264 321.968 49.553 319.524 48.586C317.376 47.7157 315.461 46.3568 313.931 44.6174C312.394 42.8269 311.242 40.7387 310.55 38.4833C309.766 35.9506 309.381 33.3116 309.409 30.6607C309.389 27.9646 309.76 25.2798 310.512 22.6902C311.186 20.3357 312.322 18.1386 313.855 16.227C315.375 14.372 317.299 12.8888 319.481 11.8912C321.957 10.7943 324.644 10.2552 327.352 10.3123C329.399 10.2982 331.439 10.5581 333.418 11.0851C335.221 11.5603 336.918 12.3693 338.423 13.47C339.882 14.5664 341.096 15.9556 341.986 17.5483C342.969 19.3529 343.571 21.3401 343.753 23.3866H337.272C336.781 20.9826 335.755 19.1239 334.191 17.8106Z" fill="#059669"/>
<path d="M377.868 46.7544C375.024 48.9041 371.445 49.9805 367.131 49.9836C364.423 50.0465 361.731 49.5462 359.227 48.5145C357.064 47.5869 355.14 46.181 353.601 44.4029C352.032 42.5567 350.866 40.4042 350.176 38.0828C349.391 35.4842 348.959 32.7922 348.892 30.0789C348.861 27.3838 349.309 24.7046 350.215 22.1656C351.038 19.8643 352.3 17.744 353.93 15.9218C355.509 14.1684 357.439 12.766 359.595 11.8054C361.85 10.8112 364.293 10.3103 366.759 10.3363C370.14 10.3363 372.947 11.0343 375.179 12.4303C377.354 13.7724 379.192 15.5952 380.552 17.7582C381.902 19.92 382.849 22.3087 383.346 24.8081C383.847 27.1988 384.057 29.6412 383.971 32.0822H355.506C355.45 33.6821 355.649 35.2808 356.094 36.8187C356.514 38.2768 357.242 39.6283 358.229 40.7825C359.256 41.97 360.537 42.9121 361.978 43.5395C363.673 44.2613 365.504 44.6126 367.346 44.5698C369.998 44.5698 372.168 43.9577 373.856 42.7334C375.543 41.5091 376.658 39.6473 377.199 37.1479H383.384C382.553 41.3962 380.714 44.5984 377.868 46.7544ZM376.363 22.366C375.546 20.4063 374.159 18.7361 372.383 17.5706C370.606 16.405 368.521 15.7975 366.396 15.8264C364.895 15.8034 363.405 16.0909 362.021 16.6707C360.761 17.2082 359.624 17.9952 358.678 18.9841C357.739 19.9782 356.991 21.1358 356.471 22.3993C355.926 23.7222 355.603 25.126 355.516 26.5539H377.361C377.267 25.1118 376.929 23.6959 376.363 22.366Z" fill="#059669"/>
<path d="M301.748 11.1949V49.1728H295.505V11.1949H301.748Z" fill="#059669"/>
<path d="M298.624 7.07392C300.428 7.07392 301.891 5.6132 301.891 3.81131C301.891 2.00943 300.428 0.548706 298.624 0.548706C296.82 0.548706 295.357 2.00943 295.357 3.81131C295.357 5.6132 296.82 7.07392 298.624 7.07392Z" fill="#059669"/>
<path d="M37.6014 37.9874C35.2183 37.9892 32.8583 37.5193 30.6581 36.6048C28.4578 35.6903 26.4609 34.3493 24.7827 32.6594C22.1341 30.0251 18.5483 28.5461 14.8104 28.5461C11.0724 28.5461 7.48668 30.0251 4.83808 32.6594L4.49421 33.0028L0 28.5096L0.339092 28.1661C4.18079 24.3399 9.38489 22.1913 14.8104 22.1913C20.2359 22.1913 25.44 24.3399 29.2817 28.1661C30.3757 29.2616 31.6754 30.1308 33.1064 30.7239C34.5373 31.3169 36.0713 31.6222 37.6206 31.6222C39.1698 31.6222 40.7038 31.3169 42.1348 30.7239C43.5657 30.1308 44.8654 29.2616 45.9594 28.1661L46.2985 27.8227L50.8023 32.3112L50.4584 32.6546C48.7763 34.3502 46.7733 35.6948 44.5661 36.6103C42.3589 37.5258 39.9914 37.9939 37.6014 37.9874Z" fill="#059669"/>
</g>
<defs>
<clipPath id="clip0_1014_623">
<rect width="384" height="50" fill="white"/>
</clipPath>
</defs>
</svg>
